<svg width="16" height="63" viewBox="0 0 16 63" fill="none" xmlns="http://www.w3.org/2000/svg">
<path d="M12.2615 56.7574L8.37347 59.0134V60.6934H12.2615V62.9014H1.06147L1.06147 58.4214C1.06147 57.3867 1.42414 56.5067 2.14947 55.7814C2.87481 55.0561 3.74947 54.6934 4.77347 54.6934C5.46681 54.6934 6.11214 54.8907 6.70947 55.2854C7.29614 55.6801 7.73881 56.2027 8.03747 56.8534L12.2615 54.3734V56.7574ZM3.12547 60.6934H6.43747V58.4214C6.43747 58.0054 6.27747 57.6481 5.95747 57.3494C5.62681 57.0507 5.23214 56.9014 4.77347 56.9014C4.31481 56.9014 3.92547 57.0507 3.60547 57.3494C3.28547 57.6481 3.12547 58.0054 3.12547 58.4214L3.12547 60.6934ZM12.4855 48.9754C12.4855 50.2234 12.1335 51.2474 11.4295 52.0474C10.7255 52.8474 9.78147 53.2474 8.59747 53.2474H1.06147L1.06147 51.0554H8.42147C9.00814 51.0554 9.47214 50.8901 9.81347 50.5594C10.1548 50.2181 10.3255 49.6901 10.3255 48.9754C10.3255 48.2607 10.1548 47.7381 9.81347 47.4074C9.47214 47.0661 9.00814 46.8954 8.42147 46.8954H1.06147L1.06147 44.6874H8.59747C9.78147 44.6874 10.7255 45.0874 11.4295 45.8874C12.1335 46.6874 12.4855 47.7167 12.4855 48.9754Z" fill="#828282"/>
<path d="M15.4615 38.6983H0.741474L0.741474 36.6343H15.4615V38.6983ZM10.1495 28.3497V23.6297H12.2615V30.5577H1.06147L1.06147 23.7097H3.17347L3.17347 28.3497H5.55747L5.55747 24.1097H7.63747L7.63747 28.3497H10.1495ZM1.06147 15.5933V13.3853H12.2615V15.0653L5.41347 19.8653H12.2615L12.2615 22.0733H1.06147V20.3933L7.89347 15.5933H1.06147ZM6.24547 0.315656H7.10947C8.70947 0.315656 10.0055 0.827656 10.9975 1.85166C11.9895 2.87566 12.4855 4.19832 12.4855 5.81966C12.4855 7.54766 11.9255 8.98232 10.8055 10.1237C9.67481 11.2543 8.29881 11.8197 6.67747 11.8197C5.04547 11.8197 3.66414 11.2597 2.53347 10.1397C1.40281 9.00899 0.837474 7.61166 0.837474 5.94766C0.837474 4.90232 1.07747 3.94766 1.55747 3.08366C2.02681 2.21966 2.65614 1.54766 3.44547 1.06766L4.53347 2.95566C4.07481 3.22232 3.70147 3.62766 3.41347 4.17166C3.12547 4.70499 2.98147 5.30232 2.98147 5.96366C2.98147 7.03032 3.33347 7.91032 4.03747 8.60366C4.73081 9.28632 5.61081 9.62766 6.67747 9.62766C7.73347 9.62766 8.60814 9.28099 9.30147 8.58766C9.98414 7.88366 10.3255 6.95566 10.3255 5.80366C10.3255 4.95032 10.1388 4.24632 9.76547 3.69166C9.38147 3.12632 8.85881 2.74232 8.19747 2.53966V5.93166H6.24547V0.315656Z" fill="black"/>
</svg>
